<svg viewBox="0 0 1024 1024" width="24" height="24" fill="none" version="1.1" xmlns="http://www.w3.org/2000/svg">
    <path fill="currentColor" d="M512 298.666667c23.466667 0 42.666667 19.2 42.666667 42.666666v170.666667c0 23.466667-19.2 42.666667-42.666667 42.666667s-42.666667-19.2-42.666667-42.666667V341.333333c0-23.466667 19.2-42.666667 42.666667-42.666666z m-0.426667-213.333334C276.053333 85.333333 85.333333 276.48 85.333333 512s190.72 426.666667 426.24 426.666667C747.52 938.666667 938.666667 747.52 938.666667 512S747.52 85.333333 511.573333 85.333333zM512 853.333333c-188.586667 0-341.333333-152.746667-341.333333-341.333333s152.746667-341.333333 341.333333-341.333333 341.333333 152.746667 341.333333 341.333333-152.746667 341.333333-341.333333 341.333333z m42.666667-128h-85.333334v-85.333333h85.333334v85.333333z"  />
</svg>