<svg width="41" height="41" viewBox="0 0 41 41" fill="none" xmlns="http://www.w3.org/2000/svg">
<g clip-path="url(#clip0_3043_32341)">
<mask id="mask0_3043_32341" style="mask-type:luminance" maskUnits="userSpaceOnUse" x="0" y="0" width="41" height="41">
<path d="M40.96 0H0V40.96H40.96V0Z" fill="white"/>
</mask>
<g mask="url(#mask0_3043_32341)">
<path d="M36.4241 38.7084C33.3221 40.4594 28.0003 40.96 20.6386 40.96C13.277 40.96 7.95519 40.4594 4.85315 38.7084C2.99129 37.6599 2.04883 36.2304 2.04883 35.2057C2.04883 34.622 2.35935 34.2883 3.05083 34.2883H38.2258C38.9179 34.2883 39.2278 34.622 39.2278 35.2057C39.2284 36.2304 38.286 37.6599 36.4241 38.7084ZM38.2258 11.5445H3.05083C2.35935 11.5445 2.04883 11.1871 2.04883 10.544C2.04883 6.73117 7.78809 0 20.6386 0C33.3701 0 39.2284 6.73117 39.2284 10.544C39.2284 11.1871 38.9179 11.5445 38.2258 11.5445Z" fill="#374151"/>
<path d="M9.54145 27.2715C9.43393 27.1046 9.42236 26.9972 9.42236 26.9499C9.42236 26.8189 9.4941 26.7236 9.63686 26.5926C9.97111 26.2825 10.7945 25.5083 11.2477 24.8057C11.5935 24.2693 11.7369 23.7809 11.7369 23.3762C11.7369 22.3399 10.7945 21.5293 9.76811 21.5293C9.11185 21.5293 8.49149 21.8988 8.074 22.5778C7.51314 23.483 6.84471 24.5314 6.41578 24.9489C6.3082 25.0563 6.24863 25.08 6.16544 25.08C6.022 25.08 5.96245 24.9847 5.96245 24.83V23.6384C5.96245 22.471 5.27034 21.5293 4.01736 21.5293C2.75285 21.5293 2.07227 22.4704 2.07227 23.6384V30.9775C2.07227 32.1449 2.75221 33.0866 4.01736 33.0866C5.27034 33.0866 5.96245 32.1455 5.96245 30.9775V29.2859C5.96245 29.1427 6.022 29.0359 6.16544 29.0359C6.35621 29.0359 6.40421 29.2265 6.45162 29.3218C6.72629 29.977 7.52531 31.3707 8.26542 32.1928C8.76676 32.7407 9.38719 33.0866 10.0434 33.0866C11.153 33.0866 12.0839 32.1213 12.0839 31.0849C12.0839 30.4418 11.8092 29.9649 11.2842 29.3933C10.6158 28.6652 9.82829 27.712 9.54145 27.2715Z" fill="#374151"/>
<path d="M24.4208 20.8494C26.2942 20.8494 27.4755 19.6577 27.4755 17.9189C27.4755 16.811 26.807 16.0483 25.4708 16.0483H25.0892C24.385 16.0483 23.8363 16.382 23.8363 17.1325C23.8363 17.8 24.4208 18.1215 24.8626 18.1215C25.0892 18.1215 25.2326 18.1931 25.2326 18.36C25.2326 18.5742 24.9823 18.7173 24.6955 18.7173C23.8004 18.7173 23.1922 18.0857 23.1922 16.9062C23.1922 15.5957 24.0277 15.1194 24.6718 15.1194C25.4593 15.1194 25.5906 15.5247 26.1393 15.5247C26.7718 15.5247 27.2014 15.0005 27.2014 14.4526C27.2014 14.0472 27.0222 13.7378 26.7481 13.523C26.2468 13.1535 25.5432 12.8799 24.4931 12.8799C22.6434 12.8799 20.8418 14.0952 20.8418 16.9069C20.8411 19.5983 22.6428 20.8494 24.4208 20.8494Z" fill="#374151"/>
<path d="M3.44459 20.7778H5.12718C6.71434 20.7778 7.68052 19.7171 7.68052 18.3951C7.68052 17.3345 7.04792 16.8461 6.90517 16.7272C6.84559 16.6792 6.78608 16.6319 6.78608 16.5839C6.78608 16.5245 6.82192 16.5009 6.88149 16.4293C7.1081 16.1671 7.33476 15.7503 7.33476 15.1423C7.33476 13.7128 6.36799 12.9502 4.86467 12.9502H3.44459C2.50213 12.9502 2.04883 13.4987 2.04883 14.2371V19.4908C2.04883 20.2299 2.50213 20.7778 3.44459 20.7778ZM4.14887 14.9998C4.14887 14.8451 4.24427 14.7255 4.44722 14.7255H4.60217C5.11501 14.7255 5.27059 15.0829 5.27059 15.3929C5.27059 15.6787 5.11565 16.0841 4.60217 16.0841H4.44722C4.24427 16.0841 4.14887 15.9651 4.14887 15.8097V14.9998ZM4.14887 17.7878C4.14887 17.6331 4.24427 17.5135 4.44722 17.5135H4.66171C5.23474 17.5135 5.40121 17.8945 5.40121 18.2404C5.40121 18.5505 5.2341 18.991 4.66171 18.991H4.44722C4.24427 18.991 4.14887 18.872 4.14887 18.7167V17.7878Z" fill="#374151"/>
<path d="M34.5992 20.8375C35.3631 20.8375 35.7805 20.2654 35.7805 19.5507V18.288C35.7805 18.1333 35.8522 18.0617 35.9713 18.0617C36.1147 18.0617 36.1621 18.1448 36.1858 18.288C36.2934 18.8954 36.5795 19.7175 36.9016 20.135C37.3075 20.6713 37.6891 20.8382 38.0707 20.8382C38.6911 20.8382 39.2283 20.3498 39.2283 19.7418C39.2283 19.3365 39.0612 19.0386 38.8467 18.765C38.4407 18.2529 38.1904 17.9191 38.0355 17.5023C37.9996 17.4071 38.0233 17.3234 38.1309 17.2402C38.5009 16.9545 38.9306 16.3228 38.9306 15.3223C38.9306 13.8091 37.6776 12.9512 36.1621 12.9512H34.8137C33.8712 12.9512 33.418 13.499 33.418 14.238V19.5519C33.418 20.266 33.8354 20.8375 34.5992 20.8375ZM35.6493 15.2028C35.6493 15.0481 35.7447 14.9285 35.9476 14.9285H36.1147C36.616 14.9285 36.771 15.2859 36.771 15.5959C36.771 15.8938 36.616 16.287 36.1147 16.287H35.9476C35.7447 16.287 35.6493 16.1681 35.6493 16.0128V15.2028Z" fill="#374151"/>
<path d="M14.9821 21.5283C13.6459 21.5283 12.918 22.5288 12.918 23.7799V30.8333C12.918 32.0844 13.6459 33.0849 14.9821 33.0849C16.3184 33.0849 17.0463 32.0844 17.0463 30.8333V23.7799C17.0463 22.5294 16.319 21.5283 14.9821 21.5283Z" fill="#374151"/>
<path d="M36.1968 26.1154H35.6123C34.5622 26.1154 33.751 26.6039 33.751 27.676C33.751 28.6528 34.634 29.1176 35.2902 29.1176C35.6123 29.1176 35.8389 29.2128 35.8389 29.4628C35.8389 29.7728 35.4573 29.9749 35.0514 29.9749C33.703 29.9749 32.7843 29.0575 32.7843 27.3537C32.7843 25.4595 34.0372 24.7684 35.0034 24.7684C36.1847 24.7684 36.3754 25.3643 37.1988 25.3643C38.1535 25.3643 38.7975 24.5901 38.7975 23.8037C38.7975 23.22 38.535 22.7674 38.1176 22.4573C37.3896 21.921 36.2922 21.5278 34.7409 21.5278C31.9609 21.5278 29.252 23.2789 29.252 27.3537C29.252 31.2496 31.9603 33.0723 34.6333 33.0723C37.437 33.0723 39.215 31.3449 39.215 28.819C39.2156 27.2233 38.2136 26.1154 36.1968 26.1154Z" fill="#374151"/>
<path d="M31.6878 20.7781C32.3562 20.7781 32.8812 20.3849 32.8812 19.6702C32.8812 18.967 32.3562 18.5737 31.6878 18.5737H30.6141C30.4112 18.5737 30.3157 18.4548 30.3157 18.2995V18.0732C30.3157 17.9185 30.4112 17.7989 30.6141 17.7989H31.4375C32.0105 17.7989 32.4638 17.4537 32.4638 16.8457C32.4638 16.2384 32.0105 15.8926 31.4375 15.8926H30.6141C30.4112 15.8926 30.3157 15.7737 30.3157 15.6183V15.4278C30.3157 15.273 30.4112 15.1535 30.6141 15.1535H31.6878C32.3562 15.1535 32.8812 14.7603 32.8812 14.0456C32.8812 13.3424 32.3562 12.9492 31.6878 12.9492H29.4328C28.4904 12.9492 28.0371 13.4971 28.0371 14.2361V19.4899C28.0371 20.2283 28.4904 20.7768 29.4328 20.7768H31.6878V20.7781Z" fill="#374151"/>
<path d="M11.188 20.8375C13.1209 20.8375 14.1472 19.6816 14.1472 18.2285V14.2137C14.1472 13.4989 13.7298 12.9268 12.9659 12.9268C12.2022 12.9268 11.7847 13.4989 11.7847 14.2137V18.0974C11.7847 18.3832 11.6176 18.7169 11.188 18.7169C10.7584 18.7169 10.615 18.3832 10.615 18.0974V14.2137C10.615 13.4989 10.1853 12.9268 9.42151 12.9268C8.65766 12.9268 8.24023 13.4989 8.24023 14.2137V18.2285C8.24084 19.6823 9.25502 20.8375 11.188 20.8375Z" fill="#374151"/>
<path d="M19.5655 20.8372C20.1859 20.8372 20.7231 20.3488 20.7231 19.7408C20.7231 19.3355 20.556 19.0376 20.3415 18.764C19.9957 18.3114 19.6852 17.9182 19.5303 17.5013C19.4944 17.4061 19.5181 17.3224 19.6257 17.2392C19.9957 16.9535 20.4254 16.3219 20.4254 15.3214C20.4254 13.8081 19.1724 12.9502 17.6569 12.9502H16.3079C15.3654 12.9502 14.9121 13.498 14.9121 14.2371V19.551C14.9121 20.2657 15.3295 20.8379 16.0934 20.8379C16.8572 20.8379 17.2747 20.2657 17.2747 19.551V18.2884C17.2747 18.1336 17.3464 18.062 17.4655 18.062C17.6089 18.062 17.6562 18.1451 17.6799 18.2884C17.7875 18.8957 18.0737 19.7178 18.3958 20.1353C18.8017 20.6704 19.1833 20.8372 19.5655 20.8372ZM17.6082 16.286H17.4411C17.2382 16.286 17.1427 16.1671 17.1427 16.0118V15.2025C17.1427 15.0477 17.2382 14.9282 17.4411 14.9282H17.6082C18.1096 14.9282 18.2645 15.2855 18.2645 15.5956C18.2645 15.8929 18.1096 16.286 17.6082 16.286Z" fill="#374151"/>
<path d="M26.4259 21.5283C25.1965 21.5283 24.5288 22.4457 24.5288 23.6016V26.1747C24.5288 26.3889 24.4571 26.4848 24.3258 26.4848C24.2304 26.4848 24.1587 26.4253 24.0755 26.2585L22.4172 23.0416C21.7846 21.8141 21.1284 21.5283 20.3768 21.5283C19.1237 21.5283 18.4316 22.4694 18.4316 23.6488V31.0123C18.4316 32.1682 19.1001 33.0856 20.3287 33.0856C21.558 33.0856 22.2258 32.1682 22.2258 31.0123V28.4392C22.2258 28.225 22.2975 28.1291 22.4287 28.1291C22.5241 28.1291 22.5958 28.1885 22.6791 28.3554L24.3373 31.5724C24.9699 32.7998 25.6499 33.0856 26.3778 33.0856C27.6308 33.0856 28.3229 32.1445 28.3229 30.965V23.6016C28.3229 22.4457 27.6552 21.5283 26.4259 21.5283Z" fill="#374151"/>
<path d="M37.8887 33.3562C37.8887 33.0359 38.1371 32.7681 38.4777 32.7681C38.8183 32.7681 39.0668 33.0359 39.0668 33.3562C39.0668 33.7001 38.8183 33.9482 38.4777 33.9482C38.1371 33.9489 37.8887 33.6964 37.8887 33.3562ZM38.9387 33.3562C38.9387 33.0603 38.7063 32.8883 38.4777 32.8883C38.2491 32.8883 38.0167 33.0603 38.0167 33.3562C38.0167 33.6644 38.2491 33.828 38.4777 33.828C38.7063 33.828 38.9387 33.6644 38.9387 33.3562ZM38.2735 33.6088V33.1088C38.2735 33.0768 38.3016 33.0449 38.3337 33.0449H38.502C38.634 33.0449 38.7261 33.1248 38.7261 33.2328C38.7261 33.3249 38.6743 33.4048 38.5539 33.4246L38.6858 33.5729C38.698 33.5851 38.7056 33.6011 38.7056 33.6126C38.7056 33.6484 38.6813 33.6727 38.6455 33.6727C38.6211 33.6727 38.6051 33.6605 38.5936 33.6445L38.4175 33.4368H38.3977V33.6088C38.3977 33.6407 38.3695 33.6688 38.3337 33.6688C38.3016 33.6682 38.2735 33.6407 38.2735 33.6088ZM38.486 33.3243C38.5584 33.3243 38.5981 33.2884 38.5981 33.2405C38.5981 33.1887 38.5622 33.1606 38.4982 33.1606H38.3983V33.3249H38.486V33.3243Z" fill="#374151"/>
</g>
</g>
<defs>
<clipPath id="clip0_3043_32341">
<rect width="40.96" height="40.96" fill="white"/>
</clipPath>
</defs>
</svg>
