<svg viewBox="0 0 40 40" fill="none" xmlns="http://www.w3.org/2000/svg">
    <g id="Clip path group">
        <mask id="mask0_3510_983" style="mask-type:luminance" maskUnits="userSpaceOnUse" x="0" y="0" width="40" height="40">
            <g id="clip0">
                <path id="Vector" d="M40 0H0V40H40V0Z" fill="white"/>
            </g>
        </mask>
        <g mask="url(#mask0_3510_983)">
            <g id="Group">
                <path id="Vector_2" d="M35.5696 37.8012C32.5403 39.5112 27.3432 40 20.1541 40C12.965 40 7.76793 39.5112 4.73859 37.8012C2.92037 36.7773 2 35.3813 2 34.3805C2 33.8105 2.30325 33.4846 2.97852 33.4846H37.329C38.005 33.4846 38.3076 33.8105 38.3076 34.3805C38.3082 35.3813 37.3879 36.7773 35.5696 37.8012ZM37.329 11.2739H2.97852C2.30325 11.2739 2 10.9249 2 10.2969C2 6.57341 7.60475 0 20.1541 0C32.5872 0 38.3082 6.57341 38.3082 10.2969C38.3082 10.9249 38.005 11.2739 37.329 11.2739Z" fill="white"/>
                <path id="Vector_3" d="M9.31707 26.6321C9.21207 26.4692 9.20078 26.3643 9.20078 26.3181C9.20078 26.1901 9.27084 26.0971 9.41025 25.9691C9.73666 25.6664 10.5407 24.9103 10.9834 24.2242C11.321 23.7004 11.4611 23.2234 11.4611 22.8282C11.4611 21.8162 10.5407 21.0245 9.53843 21.0245C8.89754 21.0245 8.29172 21.3854 7.88401 22.0484C7.33631 22.9325 6.68354 23.9563 6.26466 24.364C6.1596 24.4689 6.10143 24.492 6.02019 24.492C5.88011 24.492 5.82196 24.3989 5.82196 24.2479V23.0842C5.82196 21.9442 5.14607 21.0245 3.92246 21.0245C2.68758 21.0245 2.02295 21.9435 2.02295 23.0842V30.2513C2.02295 31.3913 2.68696 32.3109 3.92246 32.3109C5.14607 32.3109 5.82196 31.3919 5.82196 30.2513V28.5994C5.82196 28.4595 5.88011 28.3552 6.02019 28.3552C6.20648 28.3552 6.25337 28.5413 6.29966 28.6344C6.5679 29.2742 7.34819 30.6353 8.07096 31.4381C8.56054 31.9732 9.16643 32.3109 9.80731 32.3109C10.8908 32.3109 11.8 31.3682 11.8 30.3562C11.8 29.7281 11.5317 29.2624 11.019 28.7042C10.3663 27.9932 9.59719 27.0623 9.31707 26.6321Z" fill="white"/>
                <path id="Vector_4" d="M23.8481 20.3609C25.6776 20.3609 26.8312 19.1971 26.8312 17.499C26.8312 16.4171 26.1784 15.6722 24.8736 15.6722H24.5009C23.8131 15.6722 23.2773 15.9981 23.2773 16.7311C23.2773 17.3829 23.8481 17.6969 24.2796 17.6969C24.5009 17.6969 24.641 17.7668 24.641 17.9298C24.641 18.1389 24.3965 18.2788 24.1164 18.2788C23.2423 18.2788 22.6483 17.6619 22.6483 16.5101C22.6483 15.2302 23.4643 14.7651 24.0933 14.7651C24.8623 14.7651 24.9905 15.1609 25.5263 15.1609C26.1441 15.1609 26.5636 14.649 26.5636 14.1139C26.5636 13.7181 26.3886 13.4159 26.1209 13.2062C25.6314 12.8454 24.9442 12.5781 23.9188 12.5781C22.1124 12.5781 20.353 13.7649 20.353 16.5107C20.3524 19.1391 22.1119 20.3609 23.8481 20.3609Z" fill="white"/>
                <path id="Vector_5" d="M3.36305 20.2909H5.0062C6.55617 20.2909 7.49969 19.2552 7.49969 17.9641C7.49969 16.9283 6.88193 16.4514 6.74252 16.3353C6.68434 16.2885 6.62622 16.2422 6.62622 16.1954C6.62622 16.1373 6.66122 16.1143 6.7194 16.0443C6.94069 15.7883 7.16205 15.3813 7.16205 14.7876C7.16205 13.3916 6.21793 12.6468 4.74985 12.6468H3.36305C2.44268 12.6468 2 13.1825 2 13.9035V19.0342C2 19.7559 2.44268 20.2909 3.36305 20.2909ZM4.05082 14.6484C4.05082 14.4973 4.14398 14.3805 4.34218 14.3805H4.49349C4.99432 14.3805 5.14625 14.7295 5.14625 15.0323C5.14625 15.3114 4.99494 15.7072 4.49349 15.7072H4.34218C4.14398 15.7072 4.05082 15.5911 4.05082 15.4393V14.6484ZM4.05082 17.371C4.05082 17.2199 4.14398 17.1032 4.34218 17.1032H4.55164C5.11124 17.1032 5.27381 17.4753 5.27381 17.8131C5.27381 18.1158 5.11062 18.546 4.55164 18.546H4.34218C4.14398 18.546 4.05082 18.4299 4.05082 18.2782V17.371Z" fill="white"/>
                <path id="Vector_6" d="M33.7874 20.349C34.5333 20.349 34.941 19.7903 34.941 19.0923V17.8592C34.941 17.7082 35.011 17.6382 35.1273 17.6382C35.2673 17.6382 35.3136 17.7194 35.3367 17.8592C35.4418 18.4523 35.7213 19.2552 36.0358 19.6629C36.4321 20.1867 36.8048 20.3496 37.1775 20.3496C37.7833 20.3496 38.3079 19.8726 38.3079 19.2789C38.3079 18.8831 38.1447 18.5922 37.9353 18.325C37.5388 17.8249 37.2944 17.499 37.1431 17.0919C37.1081 16.9989 37.1312 16.9172 37.2363 16.836C37.5976 16.5569 38.0172 15.9401 38.0172 14.963C38.0172 13.4853 36.7936 12.6475 35.3136 12.6475H33.9968C33.0764 12.6475 32.6338 13.1825 32.6338 13.9042V19.0935C32.6338 19.7909 33.0414 20.349 33.7874 20.349ZM34.8128 14.8463C34.8128 14.6952 34.906 14.5785 35.1041 14.5785H35.2673C35.7569 14.5785 35.9082 14.9275 35.9082 15.2302C35.9082 15.5212 35.7569 15.9051 35.2673 15.9051H35.1041C34.906 15.9051 34.8128 15.789 34.8128 15.6373V14.8463Z" fill="white"/>
                <path id="Vector_7" d="M14.6305 21.0238C13.3256 21.0238 12.6147 22.0009 12.6147 23.2226V30.1108C12.6147 31.3325 13.3256 32.3096 14.6305 32.3096C15.9355 32.3096 16.6463 31.3325 16.6463 30.1108V23.2226C16.6463 22.0015 15.936 21.0238 14.6305 21.0238Z" fill="white"/>
                <path id="Vector_8" d="M35.3483 25.5034H34.7774C33.752 25.5034 32.9598 25.9804 32.9598 27.0274C32.9598 27.9813 33.822 28.4352 34.4629 28.4352C34.7774 28.4352 34.9988 28.5282 34.9988 28.7723C34.9988 29.0751 34.6261 29.2724 34.2297 29.2724C32.9129 29.2724 32.0157 28.3765 32.0157 26.7127C32.0157 24.8628 33.2393 24.1879 34.1828 24.1879C35.3364 24.1879 35.5227 24.7698 36.3268 24.7698C37.259 24.7698 37.888 24.0138 37.888 23.2458C37.888 22.6758 37.6316 22.2338 37.224 21.931C36.5131 21.4072 35.4414 21.0233 33.9265 21.0233C31.2116 21.0233 28.5662 22.7333 28.5662 26.7127C28.5662 30.5172 31.211 32.2972 33.8214 32.2972C36.5593 32.2972 38.2957 30.6103 38.2957 28.1436C38.2963 26.5853 37.3178 25.5034 35.3483 25.5034Z" fill="white"/>
                <path id="Vector_9" d="M30.9441 20.2909C31.5968 20.2909 32.1095 19.907 32.1095 19.209C32.1095 18.5222 31.5968 18.1382 30.9441 18.1382H29.8955C29.6973 18.1382 29.6041 18.0221 29.6041 17.8704V17.6494C29.6041 17.4984 29.6973 17.3816 29.8955 17.3816H30.6996C31.2592 17.3816 31.7018 17.0445 31.7018 16.4507C31.7018 15.8577 31.2592 15.5199 30.6996 15.5199H29.8955C29.6973 15.5199 29.6041 15.4038 29.6041 15.2521V15.066C29.6041 14.9149 29.6973 14.7982 29.8955 14.7982H30.9441C31.5968 14.7982 32.1095 14.4142 32.1095 13.7162C32.1095 13.0295 31.5968 12.6455 30.9441 12.6455H28.7419C27.8216 12.6455 27.3789 13.1805 27.3789 13.9022V19.0329C27.3789 19.754 27.8216 20.2897 28.7419 20.2897H30.9441V20.2909Z" fill="white"/>
                <path id="Vector_10" d="M10.9253 20.349C12.8129 20.349 13.8152 19.2202 13.8152 17.8011V13.8804C13.8152 13.1824 13.4075 12.6237 12.6616 12.6237C11.9157 12.6237 11.508 13.1824 11.508 13.8804V17.6731C11.508 17.9522 11.3448 18.2781 10.9253 18.2781C10.5057 18.2781 10.3657 17.9522 10.3657 17.6731V13.8804C10.3657 13.1824 9.9461 12.6237 9.20022 12.6237C8.45428 12.6237 8.04663 13.1824 8.04663 13.8804V17.8011C8.04722 19.2208 9.03763 20.349 10.9253 20.349Z" fill="white"/>
                <path id="Vector_11" d="M19.1058 20.349C19.7117 20.349 20.2363 19.872 20.2363 19.2783C20.2363 18.8825 20.0731 18.5915 19.8636 18.3243C19.526 17.8823 19.2228 17.4983 19.0715 17.0913C19.0365 16.9983 19.0596 16.9165 19.1646 16.8353C19.526 16.5563 19.9456 15.9395 19.9456 14.9624C19.9456 13.4846 18.7219 12.6468 17.242 12.6468H15.9246C15.0042 12.6468 14.5615 13.1818 14.5615 13.9035V19.0929C14.5615 19.7909 14.9692 20.3496 15.7151 20.3496C16.4611 20.3496 16.8687 19.7909 16.8687 19.0929V17.8599C16.8687 17.7088 16.9388 17.6388 17.0551 17.6388C17.1951 17.6388 17.2413 17.72 17.2645 17.8599C17.3695 18.4529 17.649 19.2558 17.9635 19.6635C18.3599 20.1861 18.7326 20.349 19.1058 20.349ZM17.1945 15.9045H17.0313C16.8331 15.9045 16.7399 15.7883 16.7399 15.6366V14.8463C16.7399 14.6952 16.8331 14.5785 17.0313 14.5785H17.1945C17.6841 14.5785 17.8353 14.9274 17.8353 15.2302C17.8353 15.5205 17.6841 15.9045 17.1945 15.9045Z" fill="white"/>
                <path id="Vector_12" d="M25.8049 21.0238C24.6044 21.0238 23.9523 21.9197 23.9523 23.0485V25.5613C23.9523 25.7705 23.8823 25.8641 23.7541 25.8641C23.6609 25.8641 23.5909 25.8061 23.5096 25.6431L21.8902 22.5016C21.2725 21.3029 20.6316 21.0238 19.8976 21.0238C18.6739 21.0238 17.998 21.9428 17.998 23.0946V30.2855C17.998 31.4143 18.6508 32.3102 19.8506 32.3102C21.0512 32.3102 21.7033 31.4143 21.7033 30.2855V27.7727C21.7033 27.5635 21.7733 27.4699 21.9015 27.4699C21.9946 27.4699 22.0646 27.5279 22.1459 27.6909L23.7653 30.8325C24.3831 32.0311 25.0471 32.3102 25.758 32.3102C26.9816 32.3102 27.6575 31.3912 27.6575 30.2393V23.0485C27.6575 21.9197 27.0054 21.0238 25.8049 21.0238Z" fill="white"/>
                <path id="Vector_13" d="M37 32.5744C37 32.2616 37.2426 32 37.5752 32C37.9079 32 38.1505 32.2616 38.1505 32.5744C38.1505 32.9102 37.9079 33.1525 37.5752 33.1525C37.2426 33.1531 37 32.9065 37 32.5744ZM38.0254 32.5744C38.0254 32.2854 37.7985 32.1174 37.5752 32.1174C37.352 32.1174 37.1251 32.2854 37.1251 32.5744C37.1251 32.8753 37.352 33.0351 37.5752 33.0351C37.7985 33.0351 38.0254 32.8753 38.0254 32.5744ZM37.3758 32.821V32.3328C37.3758 32.3015 37.4033 32.2704 37.4346 32.2704H37.599C37.7278 32.2704 37.8178 32.3484 37.8178 32.4539C37.8178 32.5438 37.7672 32.6218 37.6496 32.6412L37.7785 32.786C37.7903 32.7979 37.7978 32.8135 37.7978 32.8247C37.7978 32.8597 37.7741 32.8834 37.7391 32.8834C37.7153 32.8834 37.6996 32.8715 37.6884 32.8559L37.5165 32.6531H37.4971V32.821C37.4971 32.8522 37.4696 32.8796 37.4346 32.8796C37.4033 32.8791 37.3758 32.8522 37.3758 32.821ZM37.5834 32.5432C37.654 32.5432 37.6928 32.5082 37.6928 32.4614C37.6928 32.4108 37.6578 32.3834 37.5952 32.3834H37.4977V32.5438H37.5834V32.5432Z" fill="white"/>
            </g>
        </g>
    </g>
</svg>
