<svg width="270" height="32" viewBox="0 0 270 32" fill="none" xmlns="http://www.w3.org/2000/svg">
<path d="M5.65924 0.105313C9.75287 0.0743919 13.8465 0.0991263 17.9401 0.092942C19.3192 0.0867578 20.7541 0.43617 21.8163 1.35144C23.711 2.95625 23.6985 6.23391 21.8381 7.85728C20.8752 8.73235 19.549 9.09104 18.2694 9.13433C15.7784 9.18071 13.2874 9.10032 10.7965 9.16216C9.36463 9.08795 9.36463 11.7039 10.7809 11.6389C14.1913 11.6884 17.819 11.7101 20.869 13.4478C22.8568 14.5394 24.2328 16.5709 24.6272 18.7849C25.236 22.0409 24.68 25.6927 22.4562 28.2591C20.3659 30.7174 17.0705 31.846 13.9055 31.914C11.2127 31.9295 8.51671 31.914 5.82386 31.9233C4.07211 31.9388 2.18059 31.3822 1.05314 29.9722C0.273545 29.0167 -0.00909561 27.7613 0.000222207 26.5554C0.00332815 19.5393 0.00332762 12.5202 0.00332762 5.50108C-0.0184139 4.12818 0.379147 2.69034 1.36994 1.69467C2.47876 0.559861 4.11559 0.154787 5.65924 0.105313ZM10.3306 18.723C9.9237 18.8714 9.64727 19.2858 9.68454 19.7218C9.65348 20.9493 9.63795 22.1831 9.69385 23.4107C9.70317 23.8529 10.0262 24.2888 10.489 24.3352C11.5108 24.5053 12.6134 24.4651 13.5732 24.0538C15.4616 23.1448 15.5144 20.0217 13.6726 19.0353C12.6538 18.5282 11.427 18.5066 10.3306 18.723Z" fill="#FF8732"/>
<path d="M29.575 0.173354C31.6528 -0.3554 34.0475 0.423817 35.1657 2.30074C36.7342 4.96615 37.4672 8.00881 38.6878 10.8257C38.7965 11.2277 39.3214 10.7639 39.3742 10.5227C40.3526 8.2469 40.8619 5.80721 41.744 3.49739C42.3155 2.05028 43.4212 0.739216 44.9525 0.263028C47.1142 -0.392503 49.8133 0.253747 51.0587 2.23889C52.0402 3.74476 51.8446 5.70826 51.1209 7.27597C48.8349 12.6686 46.7694 18.1819 43.8592 23.287C42.2068 26.1503 40.1724 28.9363 37.3119 30.7019C35.0135 32.0687 32.0349 32.4119 29.5284 31.4409C26.733 30.3711 26.0963 26.1596 28.3357 24.2425C29.429 23.2128 31.1 23.4354 32.2958 22.5975C32.9045 22.1738 33.33 21.4194 33.1779 20.6711C32.9977 19.9042 32.5474 19.2394 32.1933 18.5468C30.2924 14.9661 28.4196 11.3699 26.5094 7.79545C25.7702 6.43491 25.4472 4.78063 25.9472 3.28713C26.4815 1.69468 27.9537 0.528948 29.575 0.173354Z" fill="#FF8732"/>
<path d="M59.069 0.114598C61.4139 0.055848 63.7589 0.11151 66.1039 0.0898655C68.5359 0.0342072 71.0361 0.37125 73.1979 1.54935C75.9777 2.98719 77.9655 5.79174 78.4252 8.87459C78.9128 12.1832 78.155 15.8133 75.8597 18.3365C73.7942 20.6494 70.6727 21.7069 67.6413 21.9357C66.5698 22.0625 65.4672 21.8646 64.4081 22.0934C63.585 22.3934 63.8335 23.389 63.7838 24.0693C63.7527 26.0235 64.0757 28.1788 62.9327 29.9073C61.5972 32.0161 58.6124 32.4273 56.4382 31.4966C54.643 30.7205 53.6149 28.7508 53.6584 26.8491C53.6584 19.6321 53.6584 12.4151 53.6584 5.20115C53.646 3.83134 54.1585 2.42442 55.2052 1.50915C56.2612 0.575328 57.6837 0.185717 59.069 0.114598ZM63.7123 8.41387C63.1067 8.90242 63.3986 9.79296 63.3179 10.464C63.4173 11.4967 63.0818 12.6532 63.5974 13.6025C64.5882 14.1838 65.8585 13.9704 66.9208 13.6983C68.7502 13.117 69.1757 10.5382 68.0234 9.15598C66.9829 7.98406 65.0696 7.95314 63.7123 8.41387Z" fill="#FF8732"/>
<path d="M86.3888 0.102227C89.6531 0.0805822 92.9175 0.089865 96.1787 0.0991414C97.9149 0.0991414 99.763 0.87526 100.586 2.4708C101.71 4.66002 101.217 7.89439 98.8716 9.08486C96.598 10.2351 93.9704 9.45283 91.5509 9.82697C91.085 10.2042 91.0291 10.8226 91.0415 11.3792C91.0446 16.5338 91.0539 21.6915 91.0415 26.846C91.0477 28.6766 90.1625 30.6339 88.4232 31.4286C86.3236 32.3686 83.5127 32.0501 81.9722 30.2443C81.0932 29.2332 80.7267 27.8757 80.7546 26.5585C80.7577 19.5424 80.7577 12.5233 80.7546 5.50417C80.7174 4.05397 81.1615 2.52027 82.2796 1.53079C83.3791 0.504202 84.9228 0.154793 86.3888 0.102227Z" fill="#FF8732"/>
<path d="M108.45 0.11459C111.82 0.0589315 115.193 0.10841 118.566 0.0898569C120.16 0.0713042 121.877 0.507293 122.955 1.75033C124.701 3.69837 124.166 7.21721 121.787 8.42623C119.268 9.73111 116.33 8.86222 113.628 9.19926C112.758 9.40334 112.864 10.4176 112.907 11.0978C112.867 11.7781 113.603 12.1553 114.206 12.0811C116.377 12.2203 118.827 11.6235 120.734 12.9655C122.738 14.3322 122.666 17.6995 120.626 19.0013C118.504 20.4422 115.814 19.4775 113.466 19.9382C112.64 20.3526 112.91 21.4503 112.945 22.1924C113.249 23.1231 114.404 22.8819 115.159 22.9221C117.495 23.0334 120.107 22.4459 122.166 23.859C124.393 25.2938 124.595 28.8559 122.644 30.603C121.576 31.6357 120.032 31.9573 118.588 31.9635C115.578 31.9728 112.566 31.9635 109.556 31.9666C107.956 31.9666 106.251 31.8089 104.922 30.8349C103.645 29.9413 102.996 28.3674 103.006 26.8429C102.996 19.7372 103.012 12.6315 102.999 5.52581C102.981 4.25495 103.279 2.92224 104.136 1.94204C105.186 0.695911 106.863 0.182617 108.45 0.11459Z" fill="#FF8732"/>
<path d="M132.372 0.108418C135.022 0.0744044 137.674 0.0929575 140.323 0.0991418C143.454 0.120787 146.7 1.15355 148.899 3.45409C152.716 7.37491 152.601 14.1745 149.098 18.2499C146.632 21.0638 142.706 22.0532 139.081 21.9852C138.376 22.0192 137.385 21.8213 137.022 22.6129C136.658 24.9908 137.488 27.6376 136.149 29.8114C134.211 33.0148 128.527 32.585 127.226 29.0167C126.685 27.7459 126.809 26.3389 126.8 24.997C126.803 18.5004 126.803 12.0038 126.8 5.50727C126.778 4.23022 127.095 2.89442 127.965 1.91731C129.046 0.658809 130.76 0.164076 132.372 0.108418ZM136.95 8.35512C136.326 8.7169 136.516 9.55486 136.463 10.1547C136.528 11.2524 136.298 12.4089 136.662 13.4664C137.438 14.2673 138.736 13.9148 139.724 13.8034C142.094 13.4169 142.557 9.81769 140.587 8.63341C139.503 8.0459 138.103 8.03354 136.95 8.35512Z" fill="#FF8732"/>
<path d="M192.624 0.94947C194.32 -0.244091 196.73 -0.25028 198.522 0.742293C200.01 1.56171 200.846 3.24691 200.895 4.90429C200.992 7.67175 200.83 10.4485 200.964 13.2129C201.088 13.3705 201.333 13.6828 201.458 13.8375C201.83 13.3644 202.175 12.8634 202.436 12.3192C203.831 9.47446 205.213 6.62352 206.635 3.78804C207.427 2.22961 208.623 0.664987 210.409 0.216628C212.186 -0.188441 214.251 0.0496619 215.639 1.31743C216.73 2.27599 217.295 3.73548 217.301 5.17332C217.304 12.3996 217.301 19.6228 217.304 26.8491C217.354 28.6642 216.41 30.5319 214.757 31.3729C212.552 32.4923 209.427 32.0965 208.002 29.9382C206.713 28.1355 207.169 25.8318 207.092 23.7694C207.008 21.9605 207.272 20.1207 206.943 18.3365C206.474 18.0551 206.067 18.4138 205.902 18.8405C204.327 21.9326 202.815 25.0526 201.259 28.1509C200.476 29.6661 199.361 31.1967 197.659 31.7316C195.864 32.2387 193.739 31.9944 192.32 30.7112C191.158 29.6722 190.646 28.0798 190.668 26.5554C190.671 19.4342 190.664 12.3099 190.671 5.18877C190.661 3.58705 191.289 1.90803 192.624 0.94947Z" fill="#FF8732"/>
<path d="M224.019 0.213543C226.081 -0.339948 228.613 0.201174 229.824 2.0781C231.147 4.0014 230.582 6.44108 230.694 8.62412C230.781 9.65999 230.296 11.0205 231.262 11.7719C232.38 12.2265 233.641 11.9915 234.818 11.9513C235.353 11.9605 235.853 11.5833 235.996 11.07C236.399 8.38294 235.611 5.55365 236.502 2.9408C237.744 -0.352314 242.639 -0.955284 244.953 1.51533C245.869 2.50481 246.286 3.86844 246.267 5.20115C246.264 12.4151 246.264 19.629 246.267 26.8429C246.267 27.8726 246.025 28.9178 245.472 29.799C243.689 32.6778 238.797 32.752 236.949 29.9072C236.225 28.8374 236.033 27.5108 236.086 26.2462C236.045 24.3909 236.198 22.5263 236.014 20.6803C235.75 19.5517 234.393 19.6445 233.492 19.6507C232.52 19.6599 231.035 19.4713 230.728 20.6927C230.582 22.9561 230.796 25.2412 230.666 27.5108C230.535 29.3321 229.324 31.0823 227.554 31.6667C225.83 32.2202 223.752 32.0965 222.308 30.9215C221.1 29.9567 220.509 28.389 220.525 26.8739C220.528 19.5455 220.516 12.2203 220.528 4.89502C220.528 2.79856 221.932 0.729928 224.019 0.213543Z" fill="#FF8732"/>
<path d="M255.054 0.111499C258.014 0.0589327 260.977 0.111503 263.94 0.086766C265.235 0.0713053 266.605 0.108411 267.754 0.782495C270.807 2.43678 270.751 7.66557 267.564 9.14979C265.35 10.1764 262.843 9.4992 260.508 9.80223C259.778 10.1362 259.877 11.0391 259.849 11.7008C259.859 16.7502 259.852 21.8028 259.855 26.8522C259.902 28.7261 258.927 30.705 257.147 31.478C254.886 32.4459 251.827 31.9326 250.444 29.7681C249.351 28.1942 249.587 26.1936 249.565 24.3847C249.565 18.1974 249.565 12.01 249.562 5.82266C249.553 4.52706 249.749 3.15725 250.575 2.10902C251.609 0.736115 253.389 0.170249 255.054 0.111499Z" fill="#FF8732"/>
<path d="M163.096 2.23889C164.991 -0.754292 170.218 -0.624419 171.858 2.56047C173.203 5.1022 171.967 8.09538 172.762 10.7577C173.2 10.5505 173.638 10.3124 173.93 9.91355C175.604 7.88512 176.967 5.61549 178.116 3.2562C178.912 1.65139 180.39 0.235189 182.26 0.0836747C184.859 -0.309026 187.795 1.54626 187.947 4.29207C188.068 7.24505 185.99 9.64763 184.126 11.7132C183.235 12.7954 182.021 13.6148 181.297 14.8269C181.387 15.6278 181.794 16.3483 182.148 17.0595C183.536 19.5981 185.49 21.7595 187.363 23.9456C188.528 25.2969 188.879 27.3191 188.071 28.9332C186.885 31.3946 183.713 32.6283 181.157 31.645C178.868 30.7761 177.387 28.6673 176.24 26.6141C175.091 24.6352 174.38 22.4552 173.461 20.3773C173.237 20.3217 172.79 20.2072 172.569 20.1516C172.417 22.4738 172.548 24.8022 172.495 27.1274C172.457 28.1788 172.122 29.2301 171.488 30.0804C169.541 32.7396 164.854 32.619 163.096 29.8114C162.404 28.757 162.239 27.4676 162.248 26.2338C162.251 19.4249 162.251 12.6161 162.248 5.80721C162.239 4.57654 162.397 3.28712 163.096 2.23889Z" fill="#FF8732"/>
</svg>
