<svg width="63" height="68" viewBox="0 0 63 68" fill="none" xmlns="http://www.w3.org/2000/svg">
<path d="M57.4684 64.262C52.3185 67.169 43.4835 68 31.262 68C19.0405 68 10.2055 67.169 5.05563 64.262C1.96465 62.5214 0.400024 60.1482 0.400024 58.4469C0.400024 57.4779 0.915545 56.9239 2.0635 56.9239H60.4594C61.6085 56.9239 62.1229 57.4779 62.1229 58.4469C62.124 60.1482 60.5594 62.5214 57.4684 64.262ZM60.4594 19.1657H2.0635C0.915545 19.1657 0.400024 18.5724 0.400024 17.5047C0.400024 11.1748 9.9281 0 31.262 0C52.3982 0 62.124 11.1748 62.124 17.5047C62.124 18.5724 61.6085 19.1657 60.4594 19.1657Z" fill="#FF8732"/>
<path d="M12.8391 45.2746C12.6606 44.9976 12.6414 44.8193 12.6414 44.7408C12.6414 44.5232 12.7605 44.3651 12.9975 44.1475C13.5524 43.6328 14.9193 42.3475 15.6718 41.1811C16.2458 40.2906 16.4839 39.4797 16.4839 38.8079C16.4839 37.0875 14.9193 35.7417 13.2154 35.7417C12.1259 35.7417 11.096 36.3552 10.4029 37.4823C9.4718 38.9852 8.3621 40.7257 7.65 41.4188C7.4714 41.5971 7.3725 41.6364 7.2344 41.6364C6.99626 41.6364 6.89741 41.4782 6.89741 41.2214V39.2431C6.89741 37.3051 5.74839 35.7417 3.66825 35.7417C1.56897 35.7417 0.439087 37.304 0.439087 39.2431V51.4272C0.439087 53.3652 1.56791 54.9286 3.66825 54.9286C5.74839 54.9286 6.89741 53.3663 6.89741 51.4272V48.6189C6.89741 48.3812 6.99626 48.2039 7.2344 48.2039C7.5511 48.2039 7.6308 48.5202 7.7095 48.6784C8.1655 49.7662 9.492 52.08 10.7207 53.4448C11.553 54.3544 12.583 54.9286 13.6725 54.9286C15.5145 54.9286 17.06 53.326 17.06 51.6055C17.06 50.5378 16.604 49.7461 15.7324 48.7972C14.6227 47.5884 13.3153 46.0059 12.8391 45.2746Z" fill="#D62300"/>
<path d="M37.5417 34.6135C40.6518 34.6135 42.6129 32.6351 42.6129 29.7483C42.6129 27.909 41.5032 26.6428 39.2849 26.6428H38.6514C37.4822 26.6428 36.5713 27.1968 36.5713 28.4428C36.5713 29.5509 37.5417 30.0847 38.2751 30.0847C38.6514 30.0847 38.8895 30.2036 38.8895 30.4806C38.8895 30.8362 38.4739 31.0739 37.9977 31.0739C36.5117 31.0739 35.502 30.0253 35.502 28.0671C35.502 25.8914 36.8891 25.1007 37.9584 25.1007C39.2658 25.1007 39.4837 25.7736 40.3946 25.7736C41.4448 25.7736 42.158 24.9033 42.158 23.9937C42.158 23.3208 41.8604 22.8071 41.4054 22.4505C40.5732 21.8371 39.405 21.3828 37.6618 21.3828C34.591 21.3828 31.6 23.4004 31.6 28.0682C31.5989 32.5364 34.59 34.6135 37.5417 34.6135Z" fill="#D62300"/>
<path d="M2.7172 34.4946H5.51056C8.1455 34.4946 9.74951 32.7338 9.74951 30.539C9.74951 28.7782 8.69931 27.9674 8.46231 27.77C8.36341 27.6904 8.2646 27.6118 8.2646 27.5322C8.2646 27.4335 8.32411 27.3943 8.42301 27.2754C8.7992 26.8402 9.1755 26.1482 9.1755 25.1389C9.1755 22.7657 7.57051 21.4996 5.07477 21.4996H2.7172C1.15257 21.4996 0.400024 22.4102 0.400024 23.636V32.3581C0.400024 33.585 1.15257 34.4946 2.7172 34.4946ZM3.88641 24.9022C3.88641 24.6454 4.04479 24.4469 4.38173 24.4469H4.63896C5.49036 24.4469 5.74865 25.0402 5.74865 25.5549C5.74865 26.0294 5.49142 26.7023 4.63896 26.7023H4.38173C4.04479 26.7023 3.88641 26.5048 3.88641 26.2469V24.9022ZM3.88641 29.5307C3.88641 29.2739 4.04479 29.0754 4.38173 29.0754H4.73781C5.68914 29.0754 5.9655 29.708 5.9655 30.2822C5.9655 30.7969 5.68808 31.5282 4.73781 31.5282H4.38173C4.04479 31.5282 3.88641 31.3308 3.88641 31.0729V29.5307Z" fill="#D62300"/>
<path d="M54.4384 34.5933C55.7065 34.5933 56.3995 33.6435 56.3995 32.4569V30.3607C56.3995 30.1039 56.5185 29.985 56.7162 29.985C56.9543 29.985 57.033 30.123 57.0723 30.3607C57.2509 31.369 57.726 32.7339 58.2607 33.4269C58.9345 34.3174 59.5681 34.5944 60.2016 34.5944C61.2315 34.5944 62.1233 33.7835 62.1233 32.7742C62.1233 32.1013 61.8459 31.6067 61.4898 31.1525C60.8159 30.3024 60.4003 29.7483 60.1431 29.0563C60.0836 28.8982 60.1229 28.7592 60.3015 28.6212C60.9158 28.1468 61.6291 27.0982 61.6291 25.4372C61.6291 22.925 59.5489 21.5007 57.033 21.5007H54.7945C53.2298 21.5007 52.4773 22.4102 52.4773 23.6371V32.459C52.4773 33.6445 53.1703 34.5933 54.4384 34.5933ZM56.1816 25.2387C56.1816 24.9819 56.34 24.7834 56.6769 24.7834H56.9543C57.7866 24.7834 58.0438 25.3767 58.0438 25.8914C58.0438 26.386 57.7866 27.0387 56.9543 27.0387H56.6769C56.34 27.0387 56.1816 26.8413 56.1816 26.5834V25.2387Z" fill="#D62300"/>
<path d="M21.8719 35.7405C19.6536 35.7405 18.4451 37.4015 18.4451 39.4785V51.1883C18.4451 53.2653 19.6536 54.9263 21.8719 54.9263C24.0903 54.9263 25.2988 53.2653 25.2988 51.1883V39.4785C25.2988 37.4025 24.0913 35.7405 21.8719 35.7405Z" fill="#D62300"/>
<path d="M57.0923 43.3557H56.1218C54.3786 43.3557 53.0319 44.1666 53.0319 45.9465C53.0319 47.5682 54.4977 48.3398 55.5872 48.3398C56.1218 48.3398 56.4981 48.4979 56.4981 48.9129C56.4981 49.4276 55.8646 49.763 55.1907 49.763C52.9522 49.763 51.4269 48.24 51.4269 45.4115C51.4269 42.2668 53.507 41.1195 55.111 41.1195C57.0721 41.1195 57.3888 42.1087 58.7557 42.1087C60.3406 42.1087 61.4098 40.8234 61.4098 39.5179C61.4098 38.5489 60.974 37.7975 60.281 37.2827C59.0725 36.3923 57.2506 35.7396 54.6752 35.7396C50.06 35.7396 45.5627 38.6466 45.5627 45.4115C45.5627 51.8793 50.0589 54.9052 54.4966 54.9052C59.1511 54.9052 62.1029 52.0375 62.1029 47.8441C62.1039 45.195 60.4405 43.3557 57.0923 43.3557Z" fill="#D62300"/>
<path d="M49.6049 34.4945C50.7145 34.4945 51.5861 33.8418 51.5861 32.6552C51.5861 31.4878 50.7145 30.835 49.6049 30.835H47.8223C47.4854 30.835 47.327 30.6376 47.327 30.3797V30.004C47.327 29.7472 47.4854 29.5487 47.8223 29.5487H49.1893C50.1406 29.5487 50.8931 28.9756 50.8931 27.9662C50.8931 26.958 50.1406 26.3838 49.1893 26.3838H47.8223C47.4854 26.3838 47.327 26.1864 47.327 25.9285V25.6122C47.327 25.3553 47.4854 25.1569 47.8223 25.1569H49.6049C50.7145 25.1569 51.5861 24.5041 51.5861 23.3176C51.5861 22.1501 50.7145 21.4974 49.6049 21.4974H45.8612C44.2966 21.4974 43.5441 22.4069 43.5441 23.6338V32.3559C43.5441 33.5818 44.2966 34.4924 45.8612 34.4924H49.6049V34.4945Z" fill="#D62300"/>
<path d="M15.5728 34.5932C18.7817 34.5932 20.4856 32.6743 20.4856 30.2619V23.5967C20.4856 22.4101 19.7926 21.4602 18.5245 21.4602C17.2565 21.4602 16.5634 22.4101 16.5634 23.5967V30.0443C16.5634 30.5187 16.286 31.0728 15.5728 31.0728C14.8596 31.0728 14.6215 30.5187 14.6215 30.0443V23.5967C14.6215 22.4101 13.9082 21.4602 12.6402 21.4602C11.3721 21.4602 10.6791 22.4101 10.6791 23.5967V30.2619C10.6801 32.6754 12.3638 34.5932 15.5728 34.5932Z" fill="#D62300"/>
<path d="M29.4798 34.5933C30.5098 34.5933 31.4016 33.7824 31.4016 32.7731C31.4016 32.1002 31.1242 31.6056 30.7681 31.1514C30.1941 30.4 29.6786 29.7472 29.4214 29.0552C29.3619 28.8971 29.4012 28.7581 29.5798 28.6201C30.1941 28.1457 30.9074 27.0971 30.9074 25.4361C30.9074 22.9239 28.8272 21.4996 26.3113 21.4996H24.0717C22.5071 21.4996 21.7545 22.4091 21.7545 23.636V32.4579C21.7545 33.6445 22.4475 34.5944 23.7156 34.5944C24.9837 34.5944 25.6767 33.6445 25.6767 32.4579V30.3618C25.6767 30.1049 25.7958 29.986 25.9935 29.986C26.2316 29.986 26.3102 30.124 26.3495 30.3618C26.5281 31.37 27.0032 32.7349 27.5379 33.428C28.2118 34.3163 28.8453 34.5933 29.4798 34.5933ZM26.2305 27.0376H25.9531C25.6161 27.0376 25.4577 26.8402 25.4577 26.5823V25.2387C25.4577 24.9818 25.6161 24.7834 25.9531 24.7834H26.2305C27.0628 24.7834 27.32 25.3766 27.32 25.8914C27.32 26.3849 27.0628 27.0376 26.2305 27.0376Z" fill="#D62300"/>
<path d="M40.8685 35.7405C38.8276 35.7405 37.719 37.2635 37.719 39.1824V43.4543C37.719 43.8098 37.6 43.969 37.3821 43.969C37.2237 43.969 37.1046 43.8703 36.9665 43.5933L34.2135 38.2527C33.1633 36.2149 32.0738 35.7405 30.826 35.7405C28.7458 35.7405 27.5968 37.3028 27.5968 39.2609V51.4854C27.5968 53.4043 28.7065 54.9274 30.7462 54.9274C32.7871 54.9274 33.8957 53.4043 33.8957 51.4854V47.2136C33.8957 46.858 34.0147 46.6988 34.2326 46.6988C34.391 46.6988 34.51 46.7975 34.6482 47.0745L37.4012 52.4152C38.4514 54.4529 39.5802 54.9274 40.7887 54.9274C42.8689 54.9274 44.0179 53.3651 44.0179 51.4069V39.1824C44.0179 37.2635 42.9093 35.7405 40.8685 35.7405Z" fill="#D62300"/>
<path d="M59.9 55.3764C59.9 54.8447 60.3124 54.4 60.8779 54.4C61.4434 54.4 61.8558 54.8447 61.8558 55.3764C61.8558 55.9474 61.4434 56.3592 60.8779 56.3592C60.3124 56.3603 59.9 55.9411 59.9 55.3764ZM61.6432 55.3764C61.6432 54.8851 61.2574 54.5996 60.8779 54.5996C60.4984 54.5996 60.1126 54.8851 60.1126 55.3764C60.1126 55.888 60.4984 56.1597 60.8779 56.1597C61.2574 56.1597 61.6432 55.888 61.6432 55.3764ZM60.5388 55.7957V54.9657C60.5388 54.9126 60.5856 54.8596 60.6388 54.8596H60.9183C61.1373 54.8596 61.2903 54.9922 61.2903 55.1716C61.2903 55.3244 61.2042 55.4571 61.0044 55.49L61.2234 55.7362C61.2436 55.7564 61.2563 55.7829 61.2563 55.802C61.2563 55.8615 61.2159 55.9018 61.1564 55.9018C61.116 55.9018 61.0894 55.8816 61.0703 55.8551L60.778 55.5102H60.745V55.7957C60.745 55.8487 60.6983 55.8954 60.6388 55.8954C60.5856 55.8944 60.5388 55.8487 60.5388 55.7957ZM60.8917 55.3234C61.0118 55.3234 61.0777 55.2639 61.0777 55.1843C61.0777 55.0984 61.0182 55.0517 60.9119 55.0517H60.7461V55.3244H60.8917V55.3234Z" fill="#D62300"/>
</svg>
